<svg width="15" height="15" viewBox="0 0 15 15" fill="none" xmlns="http://www.w3.org/2000/svg">
<path d="M11.5969 4.58896L12.0656 4.14834C12.1086 4.10453 12.1326 4.04563 12.1326 3.98428C12.1326 3.92293 12.1086 3.86403 12.0656 3.82021C12.0438 3.79825 12.0179 3.78081 11.9894 3.76891C11.9608 3.75701 11.9302 3.75089 11.8992 3.75089C11.8683 3.75089 11.8376 3.75701 11.8091 3.76891C11.7805 3.78081 11.7546 3.79825 11.7328 3.82021L11.3063 4.24678C10.3722 3.27329 9.10855 2.68327 7.7625 2.59209V2.20303C7.76273 2.16525 7.75303 2.12807 7.73438 2.09521H7.96875C8.03091 2.09521 8.09052 2.07052 8.13448 2.02657C8.17843 1.98261 8.20312 1.923 8.20312 1.86084C8.20312 1.79868 8.17843 1.73907 8.13448 1.69511C8.09052 1.65116 8.03091 1.62646 7.96875 1.62646H7.03125C6.96909 1.62646 6.90948 1.65116 6.86552 1.69511C6.82157 1.73907 6.79688 1.79868 6.79688 1.86084C6.79688 1.923 6.82157 1.98261 6.86552 2.02657C6.90948 2.07052 6.96909 2.09521 7.03125 2.09521H7.30312C7.28322 2.12779 7.27193 2.16489 7.27031 2.20303V2.59209C5.90218 2.70419 4.62227 3.31272 3.67167 4.30303C2.72107 5.29334 2.16542 6.59708 2.10938 7.96865C2.16705 9.37986 2.7535 10.7177 3.75221 11.7164C4.75092 12.7152 6.08879 13.3016 7.5 13.3593C8.91337 13.3081 10.2549 12.7237 11.255 11.7237C12.2551 10.7236 12.8394 9.38202 12.8906 7.96865C12.8695 6.72514 12.4115 5.52871 11.5969 4.58896ZM7.5 12.8905C6.21019 12.8418 4.98641 12.3076 4.07372 11.3949C3.16104 10.4822 2.62685 9.25846 2.57812 7.96865C2.62685 6.67884 3.16104 5.45506 4.07372 4.54238C4.98641 3.62969 6.21019 3.0955 7.5 3.04678C8.79053 3.09333 10.0156 3.62682 10.9287 4.53996C11.8418 5.45309 12.3753 6.67812 12.4219 7.96865C12.3753 9.25918 11.8418 10.4842 10.9287 11.3973C10.0156 12.3105 8.79053 12.844 7.5 12.8905Z" fill="black"/>
<path d="M7.50011 7.26575C7.39616 7.26688 7.29373 7.29088 7.20011 7.33606L4.85636 4.52356C4.81453 4.48401 4.75961 4.46123 4.70207 4.45957C4.64452 4.45791 4.58838 4.47749 4.54434 4.51457C4.50031 4.55165 4.47146 4.60365 4.4633 4.66063C4.45515 4.71762 4.46825 4.77562 4.50011 4.82357L6.84386 7.63607C6.79914 7.73151 6.77517 7.83536 6.77355 7.94075C6.76806 8.07987 6.80399 8.21748 6.8768 8.33615C6.9496 8.45482 7.056 8.54921 7.1825 8.60735C7.309 8.66549 7.44992 8.68477 7.58739 8.66273C7.72486 8.6407 7.85269 8.57836 7.95469 8.4836C8.05669 8.38883 8.12826 8.26593 8.16034 8.13045C8.19241 7.99497 8.18354 7.85302 8.13485 7.72258C8.08617 7.59215 7.99985 7.47911 7.88685 7.39778C7.77385 7.31645 7.63925 7.2705 7.50011 7.26575ZM7.50011 8.20325C7.45375 8.20325 7.40844 8.18951 7.3699 8.16375C7.33135 8.138 7.30131 8.1014 7.28357 8.05857C7.26583 8.01574 7.26119 7.96862 7.27024 7.92315C7.27928 7.87769 7.3016 7.83593 7.33438 7.80315C7.36716 7.77037 7.40892 7.74805 7.45438 7.73901C7.49985 7.72996 7.54697 7.7346 7.5898 7.75234C7.63263 7.77008 7.66923 7.80012 7.69498 7.83867C7.72074 7.87721 7.73448 7.92252 7.73448 7.96888C7.73448 8.03104 7.70979 8.09065 7.66584 8.13461C7.62188 8.17856 7.56227 8.20325 7.50011 8.20325Z" fill="black"/>
<path d="M7.5 4.45312C7.56216 4.45312 7.62177 4.42843 7.66573 4.38448C7.70968 4.34052 7.73438 4.28091 7.73438 4.21875V3.75C7.73438 3.68784 7.70968 3.62823 7.66573 3.58427C7.62177 3.54032 7.56216 3.51562 7.5 3.51562C7.43784 3.51562 7.37823 3.54032 7.33427 3.58427C7.29032 3.62823 7.26562 3.68784 7.26562 3.75V4.21875C7.26562 4.28091 7.29032 4.34052 7.33427 4.38448C7.37823 4.42843 7.43784 4.45312 7.5 4.45312Z" fill="black"/>
<path d="M7.5 11.4844C7.43784 11.4844 7.37823 11.5091 7.33427 11.553C7.29032 11.597 7.26562 11.6566 7.26562 11.7188V12.1875C7.26562 12.2497 7.29032 12.3093 7.33427 12.3532C7.37823 12.3972 7.43784 12.4219 7.5 12.4219C7.56216 12.4219 7.62177 12.3972 7.66573 12.3532C7.70968 12.3093 7.73438 12.2497 7.73438 12.1875V11.7188C7.73438 11.6566 7.70968 11.597 7.66573 11.553C7.62177 11.5091 7.56216 11.4844 7.5 11.4844Z" fill="black"/>
<path d="M11.7188 7.73438H11.25C11.1878 7.73438 11.1282 7.75907 11.0843 7.80302C11.0403 7.84698 11.0156 7.90659 11.0156 7.96875C11.0156 8.03091 11.0403 8.09052 11.0843 8.13448C11.1282 8.17843 11.1878 8.20312 11.25 8.20312H11.7188C11.7809 8.20312 11.8405 8.17843 11.8845 8.13448C11.9284 8.09052 11.9531 8.03091 11.9531 7.96875C11.9531 7.90659 11.9284 7.84698 11.8845 7.80302C11.8405 7.75907 11.7809 7.73438 11.7188 7.73438Z" fill="black"/>
<path d="M3.75 7.73438H3.28125C3.21909 7.73438 3.15948 7.75907 3.11552 7.80302C3.07157 7.84698 3.04688 7.90659 3.04688 7.96875C3.04688 8.03091 3.07157 8.09052 3.11552 8.13448C3.15948 8.17843 3.21909 8.20312 3.28125 8.20312H3.75C3.81216 8.20312 3.87177 8.17843 3.91573 8.13448C3.95968 8.09052 3.98438 8.03091 3.98438 7.96875C3.98438 7.90659 3.95968 7.84698 3.91573 7.80302C3.87177 7.75907 3.81216 7.73438 3.75 7.73438Z" fill="black"/>
</svg>
