<svg width="532" height="533" viewBox="0 0 532 533" fill="none" xmlns="http://www.w3.org/2000/svg">
<g style="mix-blend-mode:multiply">
<path d="M532 533H-1V0H532V533Z" fill="white"/>
<path d="M380.52 452.706C380.52 460.279 329.024 466.417 265.5 466.417C201.976 466.417 150.48 460.279 150.48 452.706C150.48 445.135 201.976 438.996 265.5 438.996C329.024 438.996 380.52 445.135 380.52 452.706Z" fill="#D3D5D2"/>
<path d="M272.044 417.651L304.665 399.896C377.932 360.016 423.622 282.693 423.622 198.576V113.655C423.622 107.044 418.439 101.557 411.903 101.379C334.814 99.2662 286.991 76.7727 271.25 68.067C267.672 66.0878 263.325 66.0878 259.746 68.067C244.006 76.7727 196.183 99.2662 119.094 101.379C112.558 101.557 107.375 107.044 107.375 113.655V198.576C107.375 282.693 153.065 360.016 226.332 399.896L258.952 417.651C263.039 419.875 267.958 419.875 272.044 417.651Z" fill="#D2D3D2"/>
<path d="M407.987 123.652V195.718C407.987 275.938 364.625 349.363 294.83 387.361L271.689 399.951C269.766 400.996 267.632 401.529 265.5 401.529C263.367 401.529 261.233 400.996 259.31 399.951L236.169 387.361C166.374 349.363 123.012 275.938 123.012 195.718V123.652C123.012 120.244 125.71 117.452 129.107 117.212C194.773 112.746 239.861 95.3474 262.676 84.2015C263.586 83.7511 264.537 83.5317 265.5 83.5317C266.462 83.5317 267.413 83.7511 268.323 84.2015C291.138 95.3474 336.237 112.746 401.892 117.212C405.289 117.452 407.987 120.244 407.987 123.652Z" fill="#517BC7"/>
<path d="M407.988 123.652V195.718C407.988 275.938 364.626 349.363 294.83 387.361L271.69 399.951C269.767 400.996 267.633 401.529 265.5 401.529V83.5317C266.462 83.5317 267.413 83.7511 268.323 84.2015C291.138 95.3474 336.237 112.746 401.892 117.212C405.29 117.452 407.988 120.244 407.988 123.652Z" fill="#10439E"/>
<path d="M275.956 274.391V283.027C275.956 288.801 271.271 293.485 265.499 293.485C259.728 293.485 255.043 288.801 255.043 283.027V274.391C250.599 271.171 247.724 265.932 247.724 260.024C247.724 250.206 255.681 242.248 265.499 242.248C275.318 242.248 283.275 250.206 283.275 260.024C283.275 265.932 280.399 271.171 275.956 274.391ZM319.684 214.016H211.315C204.863 214.016 199.625 219.255 199.625 225.707V312.118C199.625 318.569 204.863 323.808 211.315 323.808H319.684C326.136 323.808 331.374 318.569 331.374 312.118V225.707C331.374 219.255 326.136 214.016 319.684 214.016Z" fill="white"/>
<path d="M304.19 181.644V195.195C304.19 199.815 300.445 203.56 295.824 203.56C291.205 203.56 287.46 199.815 287.46 195.195V182.182C287.46 170.291 278.23 160.15 266.347 159.701C253.855 159.23 243.542 169.254 243.542 181.644V205.651H226.812V182.274C226.812 161.189 243.425 143.498 264.503 142.967C275.586 142.688 285.632 147.067 292.855 154.29C299.861 161.296 304.19 170.957 304.19 181.644Z" fill="white"/>
</g>
</svg>
