<svg width="161" height="193" viewBox="0 0 161 193" fill="none" xmlns="http://www.w3.org/2000/svg">
<path d="M83.8326 191.494L100.44 181.809C137.74 160.056 161 117.879 161 71.9973V25.6762C161 22.0702 158.362 19.0772 155.034 18.9798C115.788 17.8275 91.4417 5.55818 83.4283 0.809586C81.6067 -0.269989 79.3933 -0.269989 77.5717 0.809586C69.5583 5.55818 45.2116 17.8275 5.96605 18.9798C2.63841 19.0772 0 22.0702 0 25.6762V71.9973C0 117.879 23.2604 160.056 60.5604 181.809L77.1674 191.494C79.2477 192.707 81.7523 192.707 83.8326 191.494Z" fill="#D2D3D2"/>
<path d="M153.041 31.1294V70.4381C153.041 114.195 130.965 154.245 95.4328 174.972L83.6522 181.839C82.6731 182.409 81.5868 182.7 80.5009 182.7C79.4151 182.7 78.3288 182.409 77.3497 181.839L65.5691 174.972C30.0365 154.245 7.96094 114.195 7.96094 70.4381V31.1294C7.96094 29.2702 9.33441 27.7472 11.0643 27.6164C44.4944 25.1806 67.4486 15.6901 79.0637 9.61049C79.5268 9.36482 80.0112 9.24513 80.5009 9.24513C80.9907 9.24513 81.4751 9.36482 81.9382 9.61049C93.5532 15.6901 116.513 25.1806 149.938 27.6164C151.667 27.7472 153.041 29.2702 153.041 31.1294Z" fill="#517BC7"/>
<path d="M153.04 31.1294V70.4381C153.04 114.195 130.964 154.245 95.4318 174.972L83.6513 181.839C82.6721 182.409 81.5858 182.7 80.5 182.7V9.24513C80.9898 9.24513 81.4741 9.36482 81.9372 9.61049C93.5523 15.6901 116.512 25.1806 149.937 27.6164C151.667 27.7472 153.04 29.2702 153.04 31.1294Z" fill="#10439E"/>
<path d="M85.8246 113.352V118.062C85.8246 121.211 83.4395 123.767 80.5012 123.767C77.563 123.767 75.1778 121.211 75.1778 118.062V113.352C72.9157 111.595 71.4518 108.738 71.4518 105.515C71.4518 100.16 75.5025 95.8191 80.5012 95.8191C85.4999 95.8191 89.5507 100.16 89.5507 105.515C89.5507 108.738 88.0868 111.595 85.8246 113.352ZM108.087 80.4196H52.916C49.6313 80.4196 46.9648 83.277 46.9648 86.7963V133.93C46.9648 137.449 49.6313 140.307 52.916 140.307H108.087C111.371 140.307 114.038 137.449 114.038 133.93V86.7963C114.038 83.277 111.371 80.4196 108.087 80.4196Z" fill="white"/>
<path d="M100.197 62.7615V70.1533C100.197 72.6734 98.2906 74.7158 95.9384 74.7158C93.5867 74.7158 91.6801 72.6734 91.6801 70.1533V63.0551C91.6801 56.5689 86.9812 51.0373 80.9315 50.7926C74.572 50.5358 69.3219 56.0034 69.3219 62.7615V75.8564H60.8047V63.105C60.8047 51.6042 69.2622 41.9544 79.9926 41.6651C85.6349 41.513 90.7493 43.9013 94.4265 47.8412C97.9934 51.6624 100.197 56.9323 100.197 62.7615Z" fill="white"/>
</svg>
