<svg width="247" height="364" viewBox="0 0 247 364" fill="none" xmlns="http://www.w3.org/2000/svg">
<g style="mix-blend-mode:multiply" opacity="0.3">
<path d="M143.104 264.015V281.362C143.104 292.959 134.32 302.368 123.5 302.368C112.68 302.368 103.896 292.959 103.896 281.362V264.015C95.5657 257.546 90.1747 247.024 90.1747 235.156C90.1747 215.435 105.092 199.45 123.5 199.45C141.908 199.45 156.825 215.435 156.825 235.156C156.825 247.024 151.434 257.546 143.104 264.015ZM225.085 142.74H21.9154C9.81939 142.74 0 153.263 0 166.223V339.796C0 352.754 9.81939 363.278 21.9154 363.278H225.085C237.181 363.278 247 352.754 247 339.796V166.223C247 153.263 237.181 142.74 225.085 142.74Z" fill="#D9E6FC"/>
<path d="M196.03 77.7139V104.935C196.03 114.215 189.009 121.737 180.347 121.737C171.687 121.737 164.665 114.215 164.665 104.935V78.7952C164.665 54.9094 147.362 34.5388 125.083 33.6376C101.664 32.6919 82.3299 52.827 82.3299 77.7139V125.937H50.9648V78.979C50.9648 36.6265 82.1101 1.09044 121.626 0.0251617C142.404 -0.535141 161.238 8.26011 174.78 22.769C187.915 36.8407 196.03 56.2477 196.03 77.7139Z" fill="#D9E6FC"/>
</g>
</svg>
