<svg width="14" height="14" viewBox="0 0 14 14" fill="none" xmlns="http://www.w3.org/2000/svg">
<path d="M6.99996 11.7796C6.82692 11.78 6.6555 11.7483 6.49557 11.6863C6.33565 11.6244 6.19036 11.5334 6.06808 11.4186L1.56183 7.19402C1.20585 6.85666 0.925045 6.45626 0.735764 6.01616C0.546482 5.57605 0.452513 5.10503 0.45933 4.63054C0.46276 4.19571 0.557662 3.76578 0.738601 3.36539C0.919539 2.965 1.18296 2.602 1.51377 2.2972C1.84458 1.9924 2.23629 1.75178 2.66645 1.58912C3.09661 1.42646 3.55677 1.34496 4.02058 1.34929C4.49269 1.34483 4.96095 1.4293 5.39759 1.59769C5.83422 1.76608 6.23034 2.01496 6.56246 2.32956L6.99996 2.73972L7.35871 2.40339C7.97817 1.80726 8.80708 1.44178 9.69193 1.37467C10.5768 1.30755 11.4576 1.54333 12.1712 2.03835C12.5774 2.33163 12.9123 2.70269 13.1537 3.12681C13.395 3.55093 13.5371 4.01838 13.5706 4.49803C13.6042 4.97768 13.5283 5.45852 13.3481 5.90853C13.1679 6.35855 12.8875 6.76741 12.5256 7.10788L7.93183 11.4186C7.80955 11.5334 7.66427 11.6244 7.50434 11.6863C7.34441 11.7483 7.173 11.78 6.99996 11.7796ZM4.00308 2.1655C3.30768 2.16483 2.63929 2.41784 2.13933 2.87097C1.88444 3.10088 1.68174 3.37671 1.54341 3.6819C1.40508 3.98709 1.33396 4.31534 1.33433 4.64695C1.3305 5.0117 1.40393 5.37355 1.55038 5.7115C1.69682 6.04945 1.91337 6.35679 2.18746 6.61569L6.69371 10.8403C6.73438 10.8787 6.78277 10.9093 6.83608 10.9301C6.88939 10.9509 6.94658 10.9616 7.00433 10.9616C7.06209 10.9616 7.11927 10.9509 7.17258 10.9301C7.2259 10.9093 7.27428 10.8787 7.31496 10.8403L11.9131 6.52546C12.183 6.26708 12.3915 5.95808 12.525 5.61877C12.6584 5.27946 12.7138 4.91751 12.6875 4.55671C12.6641 4.19221 12.557 3.83675 12.3735 3.51465C12.19 3.19255 11.9345 2.91142 11.6243 2.6905C11.0801 2.31434 10.4086 2.13648 9.73494 2.19006C9.06124 2.24364 8.43129 2.52499 7.96246 2.98171L7.31058 3.60925C7.26991 3.64769 7.22152 3.67821 7.16821 3.69903C7.11489 3.71985 7.05771 3.73057 6.99996 3.73057C6.9422 3.73057 6.88502 3.71985 6.8317 3.69903C6.77839 3.67821 6.73 3.64769 6.68933 3.60925L5.94558 2.91198C5.43331 2.43591 4.74189 2.16778 4.02058 2.1655H4.00308Z" fill="#101820"/>
</svg>
