<svg width="50" height="50" viewBox="0 0 50 50" fill="none" xmlns="http://www.w3.org/2000/svg">
<path d="M15.0254 26.5193V23.6925C15.0254 23.1418 15.0254 22.8665 15.1308 22.6555C15.2276 22.4618 15.3847 22.3047 15.5784 22.2079C15.7895 22.1025 16.0648 22.1025 16.6154 22.1025H19.5132C20.0638 22.1025 20.3391 22.1025 20.5501 21.997C20.7439 21.9002 20.9009 21.7432 20.9977 21.5494C21.1032 21.3384 21.1032 21.0631 21.1032 20.5125V17.3127C21.1032 16.762 21.1032 16.4867 21.2086 16.2757C21.3054 16.082 21.4625 15.9249 21.6562 15.8281C21.8672 15.7227 22.1425 15.7227 22.6932 15.7227H27.461C28.0116 15.7227 28.2869 15.7227 28.498 15.8281C28.6917 15.9249 28.8488 16.082 28.9456 16.2757C29.051 16.4867 29.051 16.762 29.051 17.3127V20.5125C29.051 21.0631 29.051 21.3384 29.1565 21.5494C29.2533 21.7432 29.4103 21.9002 29.604 21.997C29.8151 22.1025 30.0904 22.1025 30.641 22.1025H44.5123C44.6725 22.1025 44.7526 22.1025 44.8378 22.1173C44.9097 22.1298 44.9998 22.1569 45.0667 22.1862C45.1459 22.2208 45.2032 22.2587 45.3178 22.3345C52.314 26.9631 48.9722 39.6865 38.4014 34.8621" stroke="#002261"/>
<path d="M34.9746 24.158V26.9848C34.9746 27.5354 34.9746 27.8107 34.8692 28.0218C34.7724 28.2155 34.6153 28.3725 34.4216 28.4693C34.2105 28.5748 33.9352 28.5748 33.3846 28.5748H30.4868C29.9362 28.5748 29.6609 28.5748 29.4499 28.6802C29.2561 28.777 29.0991 28.9341 29.0023 29.1278C28.8968 29.3389 28.8968 29.6142 28.8968 30.1648V33.3646C28.8968 33.9152 28.8968 34.1905 28.7914 34.4016C28.6946 34.5953 28.5375 34.7523 28.3438 34.8491C28.1328 34.9546 27.8575 34.9546 27.3068 34.9546H22.539C21.9884 34.9546 21.7131 34.9546 21.502 34.8491C21.3083 34.7523 21.1512 34.5953 21.0544 34.4016C20.949 34.1905 20.949 33.9152 20.949 33.3646V30.1648C20.949 29.6142 20.949 29.3389 20.8435 29.1278C20.7467 28.9341 20.5897 28.777 20.396 28.6802C20.1849 28.5748 19.9096 28.5748 19.359 28.5748H5.48766C5.32747 28.5748 5.24738 28.5748 5.16223 28.56C5.09035 28.5474 5.00016 28.5203 4.9333 28.4911C4.85411 28.4565 4.79682 28.4186 4.68223 28.3427C-2.31397 23.7141 1.02783 10.9908 11.5986 15.8152" stroke="#002261"/>
<path d="M23.4862 13.1751V5.12306C23.4862 4.66372 23.4862 4.43405 23.4198 4.18292C23.3666 3.98137 23.2377 3.70613 23.117 3.53613C22.9667 3.32432 22.8304 3.21064 22.5578 2.98327C19.7888 0.673642 15.0635 -1.03368 12.7332 6.30457M12.7332 6.30457C13.8241 7.12242 16.0058 9.34704 16.0058 11.7027M12.7332 6.30457C9.61638 6.3045 3.9438 7.97293 6.1879 14.6472" stroke="#002261"/>
<path d="M23.4857 36.8249V44.8769C23.4857 45.3363 23.4857 45.5659 23.4193 45.8171C23.3661 46.0186 23.2372 46.2939 23.1166 46.4639C22.9662 46.6757 22.8299 46.7894 22.5573 47.0167C19.7883 49.3264 15.063 51.0337 12.7327 43.6954M12.7327 43.6954C13.8236 42.8776 16.0053 40.653 16.0053 38.2973M12.7327 43.6954C9.61588 43.6955 3.89883 43.0086 6.14293 36.3343" stroke="#002261"/>
<path d="M25.3111 13.1749V5.12286C25.3111 4.66353 25.3111 4.43386 25.3775 4.18272C25.4307 3.98117 25.5596 3.70593 25.6803 3.53593C25.8306 3.32412 25.9669 3.21044 26.2395 2.98307C29.0084 0.673518 33.7334 -1.03348 36.0637 6.30474M36.0637 6.30474C34.9728 7.1226 32.7915 9.34685 32.7915 11.7025M36.0637 6.30474C39.1805 6.30468 44.8531 7.97311 42.609 14.6474" stroke="#002261"/>
<path d="M25.3112 36.8249V44.8769C25.3112 45.3363 25.3112 45.5659 25.3776 45.8171C25.4308 46.0186 25.5596 46.2939 25.6803 46.4639C25.8307 46.6757 25.967 46.7894 26.2396 47.0167C29.0086 49.3264 33.7339 51.0337 36.0642 43.6954M36.0642 43.6954C34.9733 42.8776 32.7915 40.653 32.7915 38.2973M36.0642 43.6954C39.181 43.6955 44.8529 42.5178 42.6088 35.8436" stroke="#002261"/>
<path d="M36.5322 17.6859C41.2074 9.34332 54.298 17.6857 44.4801 22.1027" stroke="#002261"/>
<path d="M13.4463 32.8991C8.77108 41.2416 -4.3195 32.8992 5.49844 28.4823" stroke="#002261"/>
<path d="M11.4955 19.4223C11.1391 17.6246 11.2963 14.222 14.7766 14.9932" stroke="#002261"/>
<path d="M30.2322 12.6843C31.6981 11.8962 34.6803 11.1974 34.8812 14.7065" stroke="#002261"/>
<path d="M38.5524 31.8286C38.8329 33.8302 38.449 37.5618 34.669 36.4758" stroke="#002261"/>
<path d="M19.4277 38.3288C17.8899 38.9163 14.8676 39.2199 15.0811 35.734" stroke="#002261"/>
</svg>
